<?xml version="1.0" encoding="UTF-8"?>
<svg id="Layer_1" data-name="Layer 1" xmlns="http://www.w3.org/2000/svg" viewBox="0 0 616.08 350.02">
  <defs>
    <style>
      .cls-1 {
        fill: #231f20;
      }

      .cls-2 {
        fill: none;
        stroke: #231f20;
        stroke-miterlimit: 10;
        stroke-width: 6px;
      }
    </style>
  </defs>
  <rect class="cls-2" x="3" y="67.81" width="217.16" height="217.16"/>
  <g>
    <path class="cls-1" d="M33.06,119.98c7.05-1.2,16.95-2.1,30.9-2.1s24.15,2.7,30.9,8.1c6.45,5.1,10.8,13.5,10.8,23.4s-3.3,18.3-9.3,24c-7.8,7.35-19.35,10.65-32.85,10.65-3,0-5.7-.15-7.8-.45v36.15h-22.65v-99.75ZM55.7,165.88c1.95.45,4.35.6,7.65.6,12.15,0,19.65-6.15,19.65-16.5,0-9.3-6.45-14.85-17.85-14.85-4.65,0-7.8.45-9.45.9v29.85Z"/>
    <path class="cls-1" d="M118.85,219.72c.3-4.8.6-13.65.6-21.9v-84.6h22.8v41.85h.3c4.35-6.3,12-10.35,22.2-10.35,17.55,0,30.45,14.55,30.3,37.05,0,26.4-16.8,39.6-33.6,39.6-8.55,0-16.8-3.15-22.05-11.85h-.3l-.9,10.2h-19.35ZM142.25,188.52c0,1.5.15,2.85.45,4.05,1.5,6.15,6.75,10.8,13.35,10.8,9.75,0,15.75-7.5,15.75-20.7,0-11.4-5.1-20.4-15.75-20.4-6.15,0-11.85,4.65-13.35,11.25-.3,1.35-.45,2.7-.45,4.2v10.8Z"/>
  </g>
  <g>
    <path class="cls-1" d="M14.22,89.8c0-1.95,1.12-3.3,2.9-4.07v-.08c-1.57-.8-2.35-2.12-2.35-3.55,0-2.75,2.47-4.57,5.72-4.57,3.8,0,5.37,2.2,5.37,4.17,0,1.4-.75,2.77-2.35,3.57v.08c1.57.6,2.97,1.95,2.97,4.05,0,2.95-2.47,4.92-6.25,4.92-4.12,0-6.02-2.32-6.02-4.52ZM22.62,89.67c0-1.42-1.05-2.27-2.55-2.67-1.25.35-1.97,1.25-1.97,2.42-.02,1.17.88,2.27,2.3,2.27,1.35,0,2.22-.87,2.22-2.02ZM18.34,81.97c0,1.1,1,1.8,2.3,2.2.88-.25,1.65-1.05,1.65-2.07s-.58-2-1.97-2c-1.3,0-1.97.85-1.97,1.87Z"/>
    <path class="cls-1" d="M28.35,94.05v-2.3l2.1-1.9c3.55-3.17,5.27-5,5.32-6.9,0-1.32-.8-2.37-2.67-2.37-1.4,0-2.62.7-3.47,1.35l-1.07-2.72c1.23-.92,3.12-1.67,5.32-1.67,3.67,0,5.7,2.15,5.7,5.1,0,2.72-1.97,4.9-4.32,7l-1.5,1.25v.05h6.12v3.12h-11.52Z"/>
  </g>
  <g>
    <path class="cls-1" d="M171.17,94.05v-2.3l2.1-1.9c3.55-3.17,5.27-5,5.32-6.9,0-1.32-.8-2.37-2.67-2.37-1.4,0-2.62.7-3.47,1.35l-1.08-2.72c1.23-.92,3.12-1.67,5.32-1.67,3.67,0,5.7,2.15,5.7,5.1,0,2.72-1.97,4.9-4.32,7l-1.5,1.25v.05h6.12v3.12h-11.52Z"/>
    <path class="cls-1" d="M197.04,85.85c0,5.02-2.02,8.47-6.17,8.47s-6.05-3.77-6.07-8.37c0-4.7,2-8.42,6.2-8.42s6.05,3.87,6.05,8.32ZM188.61,85.95c-.03,3.72.87,5.5,2.35,5.5s2.27-1.85,2.27-5.55-.77-5.5-2.3-5.5c-1.4,0-2.35,1.77-2.32,5.55Z"/>
    <path class="cls-1" d="M210.56,77.8v2.4l-6.7,13.85h-4.02l6.7-13.07v-.05h-7.45v-3.12h11.47Z"/>
  </g>
  <g>
    <path class="cls-1" d="M86.3,240.76h3.82v13.65h6.7v3.2h-10.52v-16.85Z"/>
    <path class="cls-1" d="M101.65,252.71c.12,1.58,1.67,2.33,3.45,2.33,1.3,0,2.35-.18,3.37-.5l.5,2.57c-1.25.5-2.77.75-4.42.75-4.15,0-6.52-2.4-6.52-6.22,0-3.1,1.92-6.52,6.17-6.52,3.95,0,5.45,3.07,5.45,6.1,0,.65-.07,1.22-.12,1.5h-7.87ZM106.13,250.11c0-.92-.4-2.47-2.15-2.47-1.6,0-2.25,1.45-2.35,2.47h4.5Z"/>
    <path class="cls-1" d="M118.88,257.61l-.23-1.22h-.08c-.8.97-2.05,1.5-3.5,1.5-2.47,0-3.95-1.8-3.95-3.75,0-3.17,2.85-4.7,7.17-4.67v-.17c0-.65-.35-1.57-2.22-1.57-1.25,0-2.57.42-3.37.92l-.7-2.45c.85-.47,2.52-1.07,4.75-1.07,4.07,0,5.37,2.4,5.37,5.27v4.25c0,1.17.05,2.3.17,2.97h-3.42ZM118.43,251.83c-2-.03-3.55.45-3.55,1.92,0,.97.65,1.45,1.5,1.45.95,0,1.72-.62,1.97-1.4.05-.2.08-.43.08-.65v-1.32Z"/>
    <path class="cls-1" d="M136.98,239.86v14.1c0,1.38.05,2.82.1,3.65h-3.37l-.17-1.8h-.05c-.78,1.38-2.25,2.07-3.82,2.07-2.9,0-5.22-2.47-5.22-6.27-.03-4.12,2.55-6.5,5.47-6.5,1.5,0,2.67.52,3.22,1.38h.05v-6.62h3.8ZM133.18,250.56c0-.2-.03-.47-.05-.67-.22-1.02-1.05-1.87-2.22-1.87-1.72,0-2.62,1.55-2.62,3.47,0,2.08,1.03,3.37,2.6,3.37,1.1,0,1.97-.75,2.2-1.82.08-.27.1-.55.1-.88v-1.6Z"/>
    <path class="cls-1" d="M53.81,264.32c-.68,1.1-1.21,2.71-1.21,4.86s.54,3.71,1.21,4.82h-1.27c-.65-.92-1.37-2.52-1.37-4.83.01-2.33.72-3.91,1.37-4.85h1.27Z"/>
    <path class="cls-1" d="M55.01,264.63c.56-.1,1.36-.17,2.47-.17s1.93.22,2.47.65c.52.41.86,1.08.86,1.87s-.26,1.46-.74,1.92c-.62.59-1.55.85-2.63.85-.24,0-.46-.01-.62-.04v2.89h-1.81v-7.98ZM56.82,268.3c.16.04.35.05.61.05.97,0,1.57-.49,1.57-1.32,0-.74-.52-1.19-1.43-1.19-.37,0-.62.04-.76.07v2.39Z"/>
    <path class="cls-1" d="M67.43,269.61c0,2.15-1.52,3.13-3.09,3.13-1.72,0-3.03-1.13-3.03-3.02s1.25-3.11,3.13-3.11,3,1.24,3,3ZM63.18,269.67c0,1.01.42,1.76,1.2,1.76.71,0,1.16-.71,1.16-1.76,0-.88-.34-1.76-1.16-1.76-.88,0-1.2.9-1.2,1.76Z"/>
    <path class="cls-1" d="M68.55,271.01c.34.2,1.03.44,1.57.44s.78-.19.78-.49-.18-.44-.86-.67c-1.21-.41-1.68-1.07-1.67-1.76,0-1.09.94-1.92,2.39-1.92.68,0,1.3.16,1.66.34l-.32,1.26c-.26-.14-.77-.34-1.27-.34-.44,0-.7.18-.7.48,0,.28.23.42.95.67,1.12.38,1.58.95,1.6,1.81,0,1.09-.86,1.9-2.54,1.9-.77,0-1.45-.17-1.89-.41l.32-1.31Z"/>
    <path class="cls-1" d="M75.81,265.06v1.68h1.31v1.34h-1.31v2.12c0,.71.17,1.03.72,1.03.23,0,.41-.02.54-.05v1.38c-.23.1-.66.16-1.18.16-.59,0-1.08-.2-1.37-.5-.34-.35-.5-.91-.5-1.74v-2.4h-.78v-1.34h.78v-1.27l1.79-.41Z"/>
    <path class="cls-1" d="M80.94,268.85v1.21h-3.14v-1.21h3.14Z"/>
    <path class="cls-1" d="M82.99,266.06h-2.17v-1.54h6.21v1.54h-2.21v6.55h-1.83v-6.55Z"/>
    <path class="cls-1" d="M87.3,268.67c0-.86-.02-1.43-.05-1.93h1.57l.06,1.08h.05c.3-.85,1.02-1.21,1.58-1.21.17,0,.25,0,.38.02v1.71c-.13-.02-.29-.05-.49-.05-.67,0-1.13.36-1.25.92-.02.12-.04.26-.04.41v2.97h-1.82v-3.93Z"/>
    <path class="cls-1" d="M95.07,272.61l-.11-.59h-.04c-.38.47-.98.72-1.68.72-1.19,0-1.9-.86-1.9-1.8,0-1.52,1.37-2.25,3.44-2.24v-.08c0-.31-.17-.76-1.07-.76-.6,0-1.24.2-1.62.44l-.34-1.18c.41-.23,1.21-.52,2.28-.52,1.96,0,2.58,1.15,2.58,2.53v2.04c0,.56.02,1.1.08,1.43h-1.64ZM94.85,269.84c-.96-.01-1.7.22-1.7.92,0,.47.31.7.72.7.46,0,.83-.3.95-.67.02-.1.04-.2.04-.31v-.64Z"/>
    <path class="cls-1" d="M98.07,268.61c0-.73-.02-1.36-.05-1.87h1.58l.08.8h.04c.24-.37.84-.94,1.81-.94,1.2,0,2.1.79,2.1,2.52v3.48h-1.82v-3.25c0-.76-.26-1.27-.92-1.27-.5,0-.8.35-.92.68-.05.11-.07.29-.07.46v3.38h-1.82v-3.99Z"/>
    <path class="cls-1" d="M105.09,271.01c.34.2,1.03.44,1.57.44s.78-.19.78-.49-.18-.44-.86-.67c-1.21-.41-1.68-1.07-1.67-1.76,0-1.09.94-1.92,2.39-1.92.68,0,1.3.16,1.66.34l-.32,1.26c-.26-.14-.77-.34-1.27-.34-.44,0-.7.18-.7.48,0,.28.23.42.95.67,1.12.38,1.58.95,1.6,1.81,0,1.09-.86,1.9-2.54,1.9-.77,0-1.45-.17-1.89-.41l.32-1.31Z"/>
    <path class="cls-1" d="M112.19,265.11c0,.5-.38.91-.98.91s-.96-.41-.95-.91c-.01-.53.37-.92.96-.92s.96.4.97.92ZM110.31,272.61v-5.87h1.82v5.87h-1.82Z"/>
    <path class="cls-1" d="M115.63,265.06v1.68h1.31v1.34h-1.31v2.12c0,.71.17,1.03.72,1.03.23,0,.41-.02.54-.05v1.38c-.23.1-.66.16-1.18.16-.59,0-1.08-.2-1.37-.5-.34-.35-.5-.91-.5-1.74v-2.4h-.78v-1.34h.78v-1.27l1.79-.41Z"/>
    <path class="cls-1" d="M119.88,265.11c0,.5-.38.91-.98.91s-.96-.41-.95-.91c-.01-.53.37-.92.96-.92s.96.4.97.92ZM118,272.61v-5.87h1.82v5.87h-1.82Z"/>
    <path class="cls-1" d="M127.08,269.61c0,2.15-1.52,3.13-3.09,3.13-1.72,0-3.03-1.13-3.03-3.02s1.25-3.11,3.13-3.11,3,1.24,3,3ZM122.83,269.67c0,1.01.42,1.76,1.2,1.76.71,0,1.16-.71,1.16-1.76,0-.88-.34-1.76-1.16-1.76-.88,0-1.2.9-1.2,1.76Z"/>
    <path class="cls-1" d="M128.21,268.61c0-.73-.02-1.36-.05-1.87h1.58l.08.8h.04c.24-.37.84-.94,1.81-.94,1.2,0,2.1.79,2.1,2.52v3.48h-1.82v-3.25c0-.76-.26-1.27-.92-1.27-.5,0-.8.35-.92.68-.05.11-.07.29-.07.46v3.38h-1.82v-3.99Z"/>
    <path class="cls-1" d="M138.01,268.85v1.21h-3.14v-1.21h3.14Z"/>
    <path class="cls-1" d="M146,269.51c-.04-.97-.07-2.15-.07-3.32h-.04c-.25,1.03-.59,2.18-.9,3.13l-.98,3.15h-1.43l-.86-3.13c-.26-.95-.54-2.1-.73-3.15h-.02c-.05,1.09-.08,2.34-.14,3.35l-.14,3.07h-1.69l.52-8.08h2.43l.79,2.7c.25.94.5,1.94.68,2.89h.04c.23-.94.5-2,.77-2.9l.86-2.69h2.39l.44,8.08h-1.79l-.12-3.09Z"/>
    <path class="cls-1" d="M150.7,270.26c.06.75.8,1.12,1.66,1.12.62,0,1.13-.08,1.62-.24l.24,1.24c-.6.24-1.33.36-2.12.36-1.99,0-3.13-1.15-3.13-2.99,0-1.49.92-3.13,2.96-3.13,1.89,0,2.61,1.48,2.61,2.93,0,.31-.04.59-.06.72h-3.78ZM152.85,269.01c0-.44-.19-1.19-1.03-1.19-.77,0-1.08.7-1.13,1.19h2.16Z"/>
    <path class="cls-1" d="M157.67,265.06v1.68h1.31v1.34h-1.31v2.12c0,.71.17,1.03.72,1.03.23,0,.41-.02.54-.05v1.38c-.23.1-.66.16-1.18.16-.59,0-1.08-.2-1.37-.5-.34-.35-.5-.91-.5-1.74v-2.4h-.78v-1.34h.78v-1.27l1.79-.41Z"/>
    <path class="cls-1" d="M163.37,272.61l-.11-.59h-.04c-.38.47-.98.72-1.68.72-1.19,0-1.89-.86-1.89-1.8,0-1.52,1.37-2.25,3.44-2.24v-.08c0-.31-.17-.76-1.07-.76-.6,0-1.24.2-1.62.44l-.34-1.18c.41-.23,1.21-.52,2.28-.52,1.96,0,2.58,1.15,2.58,2.53v2.04c0,.56.02,1.1.08,1.43h-1.64ZM163.15,269.84c-.96-.01-1.7.22-1.7.92,0,.47.31.7.72.7.46,0,.83-.3.95-.67.02-.1.04-.2.04-.31v-.64Z"/>
    <path class="cls-1" d="M166.37,264.09h1.82v8.52h-1.82v-8.52Z"/>
    <path class="cls-1" d="M169.36,274c.66-1.1,1.21-2.72,1.21-4.84s-.54-3.72-1.21-4.83h1.27c.64.92,1.37,2.5,1.37,4.83-.01,2.34-.73,3.91-1.37,4.84h-1.27Z"/>
  </g>
</svg>